<?xml version="1.0" encoding="utf-8"?>
<!-- Generator: Adobe Illustrator 16.0.0, SVG Export Plug-In . SVG Version: 6.00 Build 0)  -->
<!DOCTYPE svg PUBLIC "-//W3C//DTD SVG 1.1//EN" "http://www.w3.org/Graphics/SVG/1.1/DTD/svg11.dtd">
<svg version="1.1" id="Layer_1" xmlns="http://www.w3.org/2000/svg" xmlns:xlink="http://www.w3.org/1999/xlink" x="0px" y="0px"
	 width="312px" height="12px" viewBox="0 0 312 12" enable-background="new 0 0 312 12" xml:space="preserve">
<g>
	<path d="M1.09,1.097h3.866c2.283,0,3.726,1.303,3.726,3.278v0.028c0,2.199-1.765,3.348-3.922,3.348H2.812v3.152H1.09V1.097z
		 M4.815,6.196c1.303,0,2.115-0.729,2.115-1.751V4.417c0-1.149-0.826-1.751-2.115-1.751H2.812v3.53H4.815z"/>
	<path d="M10.441,1.097h4.37c1.233,0,2.199,0.364,2.83,0.98c0.519,0.532,0.812,1.261,0.812,2.115v0.028
		c0,1.611-0.967,2.578-2.34,2.969l2.647,3.713h-2.03l-2.41-3.418h-0.027h-2.13v3.418h-1.723V1.097z M14.686,5.958
		c1.233,0,2.018-0.644,2.018-1.639V4.291c0-1.051-0.757-1.625-2.031-1.625h-2.508v3.292H14.686z"/>
	<path d="M20.033,6.028V6c0-2.759,2.129-5.071,5.141-5.071s5.112,2.284,5.112,5.043V6c0,2.76-2.129,5.071-5.141,5.071
		S20.033,8.788,20.033,6.028z M28.479,6.028V6c0-1.905-1.387-3.488-3.334-3.488s-3.306,1.555-3.306,3.46V6
		c0,1.905,1.387,3.488,3.334,3.488C27.12,9.488,28.479,7.932,28.479,6.028z"/>
	<path d="M31.094,9.459l1.135-1.162c0.574,0.729,1.148,1.148,1.975,1.148c0.925,0,1.555-0.617,1.555-1.92V1.097h1.766v6.472
		c0,1.162-0.337,2.031-0.911,2.605s-1.4,0.868-2.381,0.868C32.719,11.042,31.738,10.342,31.094,9.459z"/>
	<path d="M40.075,1.097h7.27v1.541h-5.547v2.55h4.917v1.541h-4.917v2.634h5.617v1.541h-7.34V1.097z"/>
	<path d="M48.895,6.028V6c0-2.787,2.087-5.071,5.057-5.071c1.807,0,2.899,0.63,3.838,1.527L56.683,3.73
		c-0.784-0.729-1.625-1.219-2.745-1.219c-1.877,0-3.236,1.541-3.236,3.46V6c0,1.919,1.359,3.488,3.236,3.488
		c1.204,0,1.975-0.491,2.815-1.274l1.106,1.12c-1.022,1.064-2.144,1.737-3.979,1.737C51.023,11.071,48.895,8.843,48.895,6.028z"/>
	<path d="M62.29,2.694h-3.11V1.097h7.957v1.597h-3.11v8.209H62.29V2.694z"/>
	<path d="M73.251,1.097h1.723v9.806h-1.723V1.097z"/>
	<path d="M77.651,1.097h1.597l5.253,6.78v-6.78h1.695v9.806h-1.443l-5.406-6.976v6.976h-1.695V1.097z"/>
	<path d="M91.018,2.694h-3.11V1.097h7.957v1.597h-3.11v8.209h-1.736V2.694z"/>
	<path d="M97.576,1.097h7.271v1.541h-5.548v2.55h4.917v1.541h-4.917v2.634h5.617v1.541h-7.34V1.097z"/>
	<path d="M107.078,1.097h4.37c1.233,0,2.199,0.364,2.83,0.98c0.519,0.532,0.812,1.261,0.812,2.115v0.028
		c0,1.611-0.967,2.578-2.34,2.969l2.647,3.713h-2.03l-2.41-3.418h-0.027h-2.13v3.418h-1.723V1.097z M111.322,5.958
		c1.233,0,2.018-0.644,2.018-1.639V4.291c0-1.051-0.757-1.625-2.031-1.625h-2.508v3.292H111.322z"/>
	<path d="M117.29,1.097h1.597l5.253,6.78v-6.78h1.694v9.806h-1.442l-5.407-6.976v6.976h-1.694V1.097z"/>
	<path d="M131.791,1.027h1.598l4.313,9.876h-1.82l-0.995-2.367h-4.636l-1.009,2.367h-1.765L131.791,1.027z M134.257,7.008
		l-1.695-3.922l-1.681,3.922H134.257z"/>
	<path d="M140.545,2.694h-3.11V1.097h7.957v1.597h-3.11v8.209h-1.736V2.694z"/>
	<path d="M147.153,1.097h1.723v9.806h-1.723V1.097z"/>
	<path d="M151.059,6.028V6c0-2.759,2.129-5.071,5.141-5.071s5.112,2.284,5.112,5.043V6c0,2.76-2.129,5.071-5.141,5.071
		S151.059,8.788,151.059,6.028z M159.505,6.028V6c0-1.905-1.387-3.488-3.334-3.488s-3.306,1.555-3.306,3.46V6
		c0,1.905,1.387,3.488,3.334,3.488C158.146,9.488,159.505,7.932,159.505,6.028z"/>
	<path d="M163.473,1.097h1.596l5.254,6.78v-6.78h1.694v9.806h-1.442l-5.407-6.976v6.976h-1.694V1.097z"/>
	<path d="M177.974,1.027h1.597l4.314,9.876h-1.82l-0.995-2.367h-4.636l-1.01,2.367h-1.764L177.974,1.027z M180.439,7.008
		l-1.695-3.922l-1.681,3.922H180.439z"/>
	<path d="M185.535,1.097h1.723v8.236h5.154v1.569h-6.877V1.097z"/>
	<path d="M201.874,1.027h1.597l4.314,9.876h-1.82l-0.995-2.367h-4.636l-1.01,2.367h-1.764L201.874,1.027z M204.34,7.008
		l-1.695-3.922l-1.681,3.922H204.34z"/>
	<path d="M209.436,1.097h4.369c1.233,0,2.199,0.364,2.83,0.98c0.519,0.532,0.812,1.261,0.812,2.115v0.028
		c0,1.611-0.967,2.578-2.34,2.969l2.648,3.713h-2.031l-2.41-3.418h-0.027h-2.129v3.418h-1.723V1.097z M213.68,5.958
		c1.232,0,2.017-0.644,2.017-1.639V4.291c0-1.051-0.757-1.625-2.031-1.625h-2.507v3.292H213.68z"/>
	<path d="M219.025,6.028V6c0-2.787,2.088-5.071,5.057-5.071c1.807,0,2.9,0.63,3.838,1.527l-1.105,1.275
		c-0.785-0.729-1.625-1.219-2.746-1.219c-1.877,0-3.236,1.541-3.236,3.46V6c0,1.919,1.359,3.488,3.236,3.488
		c1.205,0,1.975-0.491,2.815-1.274l1.106,1.12c-1.022,1.064-2.143,1.737-3.979,1.737C221.154,11.071,219.025,8.843,219.025,6.028z"
		/>
	<path d="M229.773,1.097h1.723v4.076h4.68V1.097h1.723v9.806h-1.723V6.77h-4.68v4.133h-1.723V1.097z"/>
	<path d="M240.595,1.097h1.723v9.806h-1.723V1.097z"/>
	<path d="M247.17,2.694h-3.109V1.097h7.956v1.597h-3.11v8.209h-1.736V2.694z"/>
	<path d="M253.729,1.097h7.271v1.541h-5.548v2.55h4.918v1.541h-4.918v2.634h5.617v1.541h-7.34V1.097z"/>
	<path d="M262.549,6.028V6c0-2.787,2.087-5.071,5.057-5.071c1.807,0,2.899,0.63,3.838,1.527l-1.106,1.275
		c-0.784-0.729-1.625-1.219-2.745-1.219c-1.877,0-3.236,1.541-3.236,3.46V6c0,1.919,1.359,3.488,3.236,3.488
		c1.204,0,1.975-0.491,2.814-1.274l1.107,1.12c-1.023,1.064-2.144,1.737-3.979,1.737C264.678,11.071,262.549,8.843,262.549,6.028z"
		/>
	<path d="M275.943,2.694h-3.109V1.097h7.957v1.597h-3.11v8.209h-1.737V2.694z"/>
	<path d="M282.427,6.743V1.097h1.724v5.575c0,1.82,0.938,2.801,2.479,2.801c1.527,0,2.466-0.924,2.466-2.73V1.097h1.723v5.562
		c0,2.927-1.653,4.398-4.216,4.398C284.052,11.057,282.427,9.585,282.427,6.743z"/>
	<path d="M293.358,1.097h4.37c1.232,0,2.199,0.364,2.83,0.98c0.518,0.532,0.812,1.261,0.812,2.115v0.028
		c0,1.611-0.967,2.578-2.34,2.969l2.647,3.713h-2.03l-2.41-3.418h-0.027h-2.13v3.418h-1.723V1.097z M297.603,5.958
		c1.233,0,2.017-0.644,2.017-1.639V4.291c0-1.051-0.756-1.625-2.03-1.625h-2.508v3.292H297.603z"/>
	<path d="M303.57,1.097h7.27v1.541h-5.547v2.55h4.916v1.541h-4.916v2.634h5.617v1.541h-7.34V1.097z"/>
</g>
</svg>
